{
  "accessors": [
    {
      "bufferView": 2,
      "componentType": 5126,
      "count": 96,
      "max": [
        1.1023621559143066,
        0.7480315566062927,
        0.35433071851730347
      ],
      "min": [
        -1.1023621559143066,
        -0.7480315566062927,
        -0.35433071851730347
      ],
      "type": "VEC3"
    },
    {
      "bufferView": 2,
      "byteOffset": 1152,
      "componentType": 5126,
      "count": 96,
      "max": [
        0.9470166563987732,
        0.9470163583755493,
        0.9470163583755493
      ],
      "min": [
        -0.9470166563987732,
        -0.9470163583755493,
        -0.9470164775848389
      ],
      "type": "VEC3"
    },
    {
      "bufferView": 3,
      "componentType": 5126,
      "count": 96,
      "max": [
        0.9726443886756897,
        0.9726445078849792,
        0.6968395113945007,
        1.0
      ],
      "min": [
        -0.9726340770721436,
        -0.9726445078849792,
        -0.9726344347000122,
        1.0
      ],
      "type": "VEC4"
    },
    {
      "bufferView": 1,
      "componentType": 5126,
      "count": 96,
      "max": [
        0.9676085114479065,
        0.9941380023956299
      ],
      "min": [
        0.004531651735305786,
        0.008445829153060913
      ],
      "type": "VEC2"
    },
    {
      "bufferView": 1,
      "byteOffset": 768,
      "componentType": 5126,
      "count": 96,
      "max": [
        0.9676085114479065,
        0.9941380023956299
      ],
      "min": [
        0.004531651735305786,
        0.008445829153060913
      ],
      "type": "VEC2"
    },
    {
      "bufferView": 1,
      "byteOffset": 1536,
      "componentType": 5126,
      "count": 96,
      "max": [
        0.9676085114479065,
        0.9941380023956299
      ],
      "min": [
        0.004531651735305786,
        0.008445829153060913
      ],
      "type": "VEC2"
    },
    {
      "bufferView": 0,
      "componentType": 5125,
      "count": 324,
      "type": "SCALAR"
    }
  ],
  "asset": {
    "extras": {
      "author": "plaggy (https://sketchfab.com/plaggy)",
      "license": "CC-BY-4.0 (http://creativecommons.org/licenses/by/4.0/)",
      "source": "https://sketchfab.com/3d-models/cc0-match-box-6cb32ec653b545079a394cc32cf3928c",
      "title": "CC0 - Match Box"
    },
    "generator": "Sketchfab-15.86.0",
    "version": "2.0"
  },
  "bufferViews": [
    {
      "buffer": 0,
      "byteLength": 1296,
      "name": "floatBufferViews",
      "target": 34963
    },
    {
      "buffer": 0,
      "byteLength": 2304,
      "byteOffset": 1296,
      "byteStride": 8,
      "name": "floatBufferViews",
      "target": 34962
    },
    {
      "buffer": 0,
      "byteLength": 2304,
      "byteOffset": 3600,
      "byteStride": 12,
      "name": "floatBufferViews",
      "target": 34962
    },
    {
      "buffer": 0,
      "byteLength": 1536,
      "byteOffset": 5904,
      "byteStride": 16,
      "name": "floatBufferViews",
      "target": 34962
    }
  ],
  "buffers": [
    {
      "byteLength": 7440,
      "uri": "scene.bin"
    }
  ],
  "images": [
    {
      "uri": "textures/Matchbox_baseColor.png"
    },
    {
      "uri": "textures/Matchbox_metallicRoughness.png"
    },
    {
      "uri": "textures/Matchbox_normal.png"
    }
  ],
  "materials": [
    {
      "name": "Matchbox",
      "normalTexture": {
        "index": 2
      },
      "pbrMetallicRoughness": {
        "baseColorTexture": {
          "index": 0
        },
        "metallicRoughnessTexture": {
          "index": 1
        }
      }
    }
  ],
  "meshes": [
    {
      "name": "MatchBox_Matchbox_0",
      "primitives": [
        {
          "attributes": {
            "NORMAL": 1,
            "POSITION": 0,
            "TANGENT": 2,
            "TEXCOORD_0": 3,
            "TEXCOORD_1": 4,
            "TEXCOORD_2": 5
          },
          "indices": 6,
          "material": 0,
          "mode": 4
        }
      ]
    }
  ],
  "nodes": [
    {
      "children": [
        1
      ],
      "matrix": [
        1.0,
        0.0,
        0.0,
        0.0,
        0.0,
        2.220446049250313e-16,
        -1.0,
        0.0,
        0.0,
        1.0,
        2.220446049250313e-16,
        0.0,
        0.0,
        0.0,
        0.0,
        1.0
      ],
      "name": "Sketchfab_model"
    },
    {
      "children": [
        2
      ],
      "matrix": [
        0.02539999969303608,
        0.0,
        0.0,
        0.0,
        0.0,
        0.0,
        0.02539999969303608,
        0.0,
        0.0,
        -0.02539999969303608,
        0.0,
        0.0,
        0.0,
        0.0,
        0.0,
        1.0
      ],
      "name": "73210858b34a4eb5b373e2b7c34f07b0.fbx"
    },
    {
      "children": [
        3
      ],
      "name": "RootNode"
    },
    {
      "children": [
        4
      ],
      "matrix": [
        -0.9905502089545246,
        -0.11718573290418002,
        0.0712585962804341,
        0.0,
        0.13163787501841792,
        -0.6665136783865393,
        0.7337785676784792,
        0.0,
        -0.03849355011924855,
        0.7362248437314209,
        0.6756413442588174,
        0.0,
        0.0,
        0.0,
        0.0,
        1.0
      ],
      "name": "MatchBox"
    },
    {
      "mesh": 0,
      "name": "MatchBox_Matchbox_0"
    }
  ],
  "samplers": [
    {
      "magFilter": 9729,
      "minFilter": 9987,
      "wrapS": 10497,
      "wrapT": 10497
    }
  ],
  "scene": 0,
  "scenes": [
    {
      "name": "Sketchfab_Scene",
      "nodes": [
        0
      ]
    }
  ],
  "textures": [
    {
      "sampler": 0,
      "source": 0
    },
    {
      "sampler": 0,
      "source": 1
    },
    {
      "sampler": 0,
      "source": 2
    }
  ]
}
